<svg width="24" height="24" viewBox="0 0 24 24" fill="none" xmlns="http://www.w3.org/2000/svg">
    <path fill-rule="evenodd" clip-rule="evenodd" d="M13.1112 2C13.672 1.99982 14.212 2.21159 14.6232 2.59285C15.0343 2.97411 15.2861 3.49668 15.3282 4.05581L15.3337 4.2225V19.78H16.445V9.22311C16.4449 9.09307 16.4905 8.96713 16.5738 8.86723C16.657 8.76732 16.7727 8.69979 16.9006 8.67638L17.0006 8.66749H18.6675C19.2282 8.66731 19.7683 8.87908 20.1794 9.26034C20.5905 9.64159 20.8424 10.1642 20.8844 10.7233L20.89 10.89V19.78C21.1732 19.7803 21.4456 19.8887 21.6516 20.0832C21.8575 20.2776 21.9815 20.5433 21.9981 20.8261C22.0147 21.1088 21.9227 21.3873 21.7409 21.6045C21.5591 21.8216 21.3013 21.9612 21.02 21.9947L20.89 22.0025H3.11002C2.82678 22.0022 2.55436 21.8937 2.3484 21.6993C2.14245 21.5048 2.01851 21.2391 2.00191 20.9563C1.98531 20.6736 2.07731 20.3952 2.2591 20.178C2.44088 19.9608 2.69875 19.8212 2.98 19.7877L3.11002 19.78H3.11002V4.2225C3.10984 3.66179 3.32161 3.12173 3.70286 2.71059C4.08412 2.29945 4.60669 2.04761 5.16583 2.00556L5.33251 2H13.1112ZM10.8888 15.335H7.55501V17.5575H10.8888V15.335ZM10.8888 10.89H7.55501V13.1125H10.8888V10.89ZM10.8888 6.44499H7.55501V8.66749H10.8888V6.44499Z" fill="currentColor"/>
</svg>
