<svg width="24" height="24" viewBox="0 0 24 24" fill="none" xmlns="http://www.w3.org/2000/svg">
<path d="M5.06667 5.4909H19.5333C20.2623 5.4909 21 6.20945 21 7.2909V20.4909C21 21.5723 20.2623 22.2909 19.5333 22.2909H5.06667C4.33771 22.2909 3.6 21.5723 3.6 20.4909V7.2909C3.6 6.20945 4.33771 5.4909 5.06667 5.4909Z" stroke="currentColor" stroke-width="1.2"/>
<path d="M3 10.8C3 7.971 3 6.558 3.60553 5.679C4.21107 4.8 5.18447 4.8 7.13333 4.8H17.4667C19.4155 4.8 20.3889 4.8 20.9945 5.679C21.6 6.558 21.6 7.971 21.6 10.8H3Z" fill="currentColor"/>
<path d="M7.20002 1.8V4.89091M17.2 1.8V4.89091" stroke="currentColor" stroke-width="1.8" stroke-linecap="round"/>
<path d="M8.775 13.2H7.425C7.30074 13.2 7.2 13.4015 7.2 13.65V14.55C7.2 14.7985 7.30074 15 7.425 15H8.775C8.89927 15 9 14.7985 9 14.55V13.65C9 13.4015 8.89927 13.2 8.775 13.2Z" fill="currentColor"/>
<path d="M17.175 13.2H15.825C15.7007 13.2 15.6 13.4015 15.6 13.65V14.55C15.6 14.7985 15.7007 15 15.825 15H17.175C17.2993 15 17.4 14.7985 17.4 14.55V13.65C17.4 13.4015 17.2993 13.2 17.175 13.2Z" fill="currentColor"/>
<path d="M12.975 13.2H11.625C11.5007 13.2 11.4 13.4015 11.4 13.65V14.55C11.4 14.7985 11.5007 15 11.625 15H12.975C13.0993 15 13.2 14.7985 13.2 14.55V13.65C13.2 13.4015 13.0993 13.2 12.975 13.2Z" fill="currentColor"/>
<path d="M8.775 16.9091H7.425C7.30074 16.9091 7.2 17.1105 7.2 17.3591V18.2591C7.2 18.5076 7.30074 18.7091 7.425 18.7091H8.775C8.89927 18.7091 9 18.5076 9 18.2591V17.3591C9 17.1105 8.89927 16.9091 8.775 16.9091Z" fill="currentColor"/>
<path d="M17.175 16.9091H15.825C15.7007 16.9091 15.6 17.1105 15.6 17.3591V18.2591C15.6 18.5076 15.7007 18.7091 15.825 18.7091H17.175C17.2993 18.7091 17.4 18.5076 17.4 18.2591V17.3591C17.4 17.1105 17.2993 16.9091 17.175 16.9091Z" fill="currentColor"/>
<path d="M12.975 16.9091H11.625C11.5007 16.9091 11.4 17.1105 11.4 17.3591V18.2591C11.4 18.5076 11.5007 18.7091 11.625 18.7091H12.975C13.0993 18.7091 13.2 18.5076 13.2 18.2591V17.3591C13.2 17.1105 13.0993 16.9091 12.975 16.9091Z" fill="currentColor"/>
</svg>
