<svg width="24" height="24" viewBox="0 0 24 24" fill="none" xmlns="http://www.w3.org/2000/svg">
<path d="M9.85725 5.14287H14.143C14.143 4.57454 13.9172 4.0295 13.5153 3.62764C13.1135 3.22577 12.5684 3.00001 12.0001 3.00001C11.4318 3.00001 10.8867 3.22577 10.4849 3.62764C10.083 4.0295 9.85725 4.57454 9.85725 5.14287ZM8.57153 5.14287C8.57153 4.23355 8.93276 3.36148 9.57574 2.7185C10.2187 2.07552 11.0908 1.71429 12.0001 1.71429C12.9094 1.71429 13.7815 2.07552 14.4245 2.7185C15.0675 3.36148 15.4287 4.23355 15.4287 5.14287H20.7858C20.9563 5.14287 21.1198 5.2106 21.2404 5.33115C21.3609 5.45171 21.4287 5.61523 21.4287 5.78572C21.4287 5.95622 21.3609 6.11973 21.2404 6.24029C21.1198 6.36085 20.9563 6.42858 20.7858 6.42858H19.663L18.6198 18.9454C18.5439 19.856 18.1286 20.7048 17.4562 21.3235C16.7839 21.9422 15.9035 22.2857 14.9898 22.2857H9.01039C8.09667 22.2857 7.21634 21.9422 6.54397 21.3235C5.87159 20.7048 5.45628 19.856 5.38039 18.9454L4.33725 6.42858H3.21439C3.04389 6.42858 2.88038 6.36085 2.75982 6.24029C2.63926 6.11973 2.57153 5.95622 2.57153 5.78572C2.57153 5.61523 2.63926 5.45171 2.75982 5.33115C2.88038 5.2106 3.04389 5.14287 3.21439 5.14287H8.57153ZM6.66182 18.8383C6.71084 19.4275 6.9795 19.9768 7.41452 20.3772C7.84954 20.7776 8.41915 20.9999 9.01039 21H14.9898C15.5811 20.9999 16.1507 20.7776 16.5857 20.3772C17.0207 19.9768 17.2894 19.4275 17.3384 18.8383L18.3738 6.42858H5.62725L6.66182 18.8383ZM10.0715 9.42858C10.242 9.42858 10.4055 9.49631 10.5261 9.61687C10.6467 9.73743 10.7144 9.90094 10.7144 10.0714V17.3572C10.7144 17.5276 10.6467 17.6912 10.5261 17.8117C10.4055 17.9323 10.242 18 10.0715 18C9.90104 18 9.73752 17.9323 9.61696 17.8117C9.49641 17.6912 9.42868 17.5276 9.42868 17.3572V10.0714C9.42868 9.90094 9.49641 9.73743 9.61696 9.61687C9.73752 9.49631 9.90104 9.42858 10.0715 9.42858ZM14.5715 10.0714C14.5715 9.90094 14.5038 9.73743 14.3832 9.61687C14.2627 9.49631 14.0992 9.42858 13.9287 9.42858C13.7582 9.42858 13.5947 9.49631 13.4741 9.61687C13.3535 9.73743 13.2858 9.90094 13.2858 10.0714V17.3572C13.2858 17.5276 13.3535 17.6912 13.4741 17.8117C13.5947 17.9323 13.7582 18 13.9287 18C14.0992 18 14.2627 17.9323 14.3832 17.8117C14.5038 17.6912 14.5715 17.5276 14.5715 17.3572V10.0714Z" fill="currentColor"/>
</svg>
