<svg width="24" height="24" viewBox="0 0 24 24" fill="none" xmlns="http://www.w3.org/2000/svg">
<path d="M4.61103 3.11112C4.61103 2.55122 4.83345 2.01425 5.22936 1.61833C5.62527 1.22242 6.16225 1 6.72215 1H13.2371C13.7969 1.00012 14.3338 1.22262 14.7296 1.61856L20.8814 7.77037C21.2774 8.16619 21.4999 8.70307 21.5 9.26293V20.0001C21.5 20.56 21.2776 21.097 20.8817 21.4929C20.4858 21.8888 19.9488 22.1112 19.3889 22.1112H15.1476C15.0912 21.7164 14.9078 21.3507 14.6251 21.0694L14.0847 20.5279H19.3889C19.5289 20.5279 19.6631 20.4723 19.7621 20.3733C19.8611 20.2743 19.9167 20.1401 19.9167 20.0001V9.44449H15.1666C14.6067 9.44449 14.0698 9.22206 13.6738 8.82615C13.2779 8.43024 13.0555 7.89327 13.0555 7.33336V2.58334H6.72215C6.58217 2.58334 6.44793 2.63895 6.34895 2.73792C6.24997 2.8369 6.19437 2.97115 6.19437 3.11112V10.595C5.64337 10.6971 5.11006 10.8785 4.61103 11.1334V3.11112ZM15.1666 7.86114H18.7344L14.6389 3.76557V7.33336C14.6389 7.47334 14.6945 7.60758 14.7934 7.70656C14.8924 7.80554 15.0267 7.86114 15.1666 7.86114ZM7.24993 21.0557C8.23614 21.0557 9.19791 20.7487 10.0018 20.1774L12.76 22.9346C12.8324 23.0123 12.9198 23.0747 13.0169 23.118C13.1141 23.1613 13.2189 23.1845 13.3252 23.1864C13.4315 23.1883 13.5371 23.1687 13.6356 23.1289C13.7342 23.0891 13.8238 23.0298 13.8989 22.9546C13.9741 22.8795 14.0334 22.7899 14.0732 22.6913C14.113 22.5928 14.1326 22.4872 14.1307 22.3809C14.1288 22.2746 14.1056 22.1698 14.0623 22.0726C14.019 21.9755 13.9566 21.8881 13.8789 21.8157L11.1217 19.0575C11.7386 18.1896 12.046 17.1395 11.9945 16.0759C11.943 15.0124 11.5356 13.9969 10.8378 13.1927C10.14 12.3884 9.19211 11.8419 8.14642 11.641C7.10073 11.44 6.01785 11.5962 5.07161 12.0846C4.12537 12.5729 3.37066 13.365 2.92862 14.3338C2.48659 15.3025 2.38288 16.3917 2.63413 17.4264C2.88539 18.4612 3.47704 19.3815 4.31411 20.0397C5.15117 20.6978 6.18511 21.0556 7.24993 21.0557ZM7.24993 19.4723C6.41007 19.4723 5.60462 19.1387 5.01075 18.5448C4.41688 17.9509 4.08325 17.1455 4.08325 16.3056C4.08325 15.4658 4.41688 14.6603 5.01075 14.0664C5.60462 13.4726 6.41007 13.1389 7.24993 13.1389C8.08979 13.1389 8.89524 13.4726 9.48911 14.0664C10.083 14.6603 10.4166 15.4658 10.4166 16.3056C10.4166 17.1455 10.083 17.9509 9.48911 18.5448C8.89524 19.1387 8.08979 19.4723 7.24993 19.4723Z" fill="currentColor"/>
</svg>
