<svg width="24" height="24" viewBox="0 0 24 24" fill="none" xmlns="http://www.w3.org/2000/svg">
<path d="M18.2199 20.75H5.77994C5.43316 20.7359 5.09256 20.6535 4.77765 20.5075C4.46274 20.3616 4.17969 20.155 3.9447 19.8996C3.70971 19.6442 3.52739 19.3449 3.40818 19.019C3.28896 18.693 3.23519 18.3468 3.24994 18V15C3.24994 14.8011 3.32896 14.6103 3.46961 14.4697C3.61027 14.329 3.80103 14.25 3.99994 14.25C4.19886 14.25 4.38962 14.329 4.53027 14.4697C4.67093 14.6103 4.74994 14.8011 4.74994 15V18C4.72412 18.2969 4.81359 18.5924 4.99977 18.8251C5.18596 19.0579 5.45459 19.21 5.74994 19.25H18.2199C18.5153 19.21 18.7839 19.0579 18.9701 18.8251C19.1563 18.5924 19.2458 18.2969 19.2199 18V15C19.2199 14.8011 19.299 14.6103 19.4396 14.4697C19.5803 14.329 19.771 14.25 19.9699 14.25C20.1689 14.25 20.3596 14.329 20.5003 14.4697C20.6409 14.6103 20.7199 14.8011 20.7199 15V18C20.7499 18.6954 20.504 19.3744 20.0358 19.8894C19.5676 20.4045 18.915 20.7137 18.2199 20.75Z" fill="currentColor"/>
<path d="M12.0001 15.75C11.9016 15.7504 11.8039 15.7312 11.7129 15.6934C11.6219 15.6557 11.5393 15.6001 11.4701 15.53L7.47009 11.53C7.33761 11.3878 7.26549 11.1997 7.26892 11.0054C7.27234 10.8111 7.35106 10.6258 7.48847 10.4883C7.62588 10.3509 7.81127 10.2722 8.00557 10.2688C8.19987 10.2654 8.38792 10.3375 8.53009 10.47L12.0001 13.94L15.4701 10.47C15.6123 10.3375 15.8003 10.2654 15.9946 10.2688C16.1889 10.2722 16.3743 10.3509 16.5117 10.4883C16.6491 10.6258 16.7278 10.8111 16.7313 11.0054C16.7347 11.1997 16.6626 11.3878 16.5301 11.53L12.5301 15.53C12.4608 15.6001 12.3783 15.6557 12.2873 15.6934C12.1963 15.7312 12.0986 15.7504 12.0001 15.75Z" fill="currentColor"/>
<path d="M12 15.75C11.8019 15.7474 11.6126 15.6676 11.4725 15.5275C11.3324 15.3874 11.2526 15.1981 11.25 15V4C11.25 3.80109 11.329 3.61032 11.4697 3.46967C11.6103 3.32902 11.8011 3.25 12 3.25C12.1989 3.25 12.3897 3.32902 12.5303 3.46967C12.671 3.61032 12.75 3.80109 12.75 4V15C12.7474 15.1981 12.6676 15.3874 12.5275 15.5275C12.3874 15.6676 12.1981 15.7474 12 15.75Z" fill="currentColor"/>
</svg>
