<svg width="24" height="24" viewBox="0 0 24 24" fill="none" xmlns="http://www.w3.org/2000/svg">
<path d="M13.437 18.276C14.425 16.414 17.718 16.414 17.718 16.414C21.15 16.378 21.614 14.294 21.924 13.241C21.6506 15.4222 20.6665 17.4526 19.1238 19.0186C17.5812 20.5845 15.5658 21.5989 13.389 21.905C13.066 21.225 12.684 19.695 13.437 18.276Z" fill="currentColor"/>
<path d="M5.00601 5.83401L4.59401 5.48201C4.56032 5.45245 4.52764 5.42177 4.49601 5.39001C2.88419 7.21428 1.99628 9.56569 2.00001 12C2.00001 17.46 6.37701 21.9 11.814 21.998C11.461 20.943 11.23 19.234 12.112 17.573C12.922 16.047 14.552 15.446 15.59 15.19C16.2662 15.0268 16.9577 14.9347 17.653 14.915H17.706C19.087 14.899 19.623 14.492 19.87 14.213C20.176 13.869 20.296 13.461 20.463 12.892L20.485 12.818C20.5799 12.4952 20.7807 12.2137 21.0549 12.0187C21.3291 11.8238 21.6609 11.7266 21.997 11.743C21.9388 9.34377 21.0162 7.04624 19.399 5.27301C19.367 5.45001 19.329 5.61601 19.292 5.76201C19.122 6.42301 18.838 7.13701 18.488 7.66701C18.147 8.18701 17.539 8.65001 17.136 8.94001C16.831 9.15901 16.519 9.34001 16.263 9.48901L16.171 9.54201C15.939 9.67501 15.755 9.78201 15.579 9.89701C15.223 10.132 15.009 10.341 14.865 10.624C14.953 10.946 15.015 11.317 15.017 11.704C15.019 12.626 14.547 13.354 13.984 13.808C13.4167 14.2617 12.7104 14.5061 11.984 14.5C9.03401 14.468 7.30401 12.061 7.08101 9.58201C7.01601 8.86101 6.69201 8.08401 6.23901 7.36001C5.89218 6.80268 5.47806 6.29016 5.00601 5.83401Z" fill="currentColor"/>
<path d="M8.57507 9.44701C8.38807 7.36301 6.78107 5.42101 6.00007 4.71101L5.57007 4.34101C7.36967 2.82579 9.64753 1.99648 12.0001 2.00001C14.2141 2.00001 16.2601 2.72001 17.9161 3.93601C18.1501 4.64701 17.7041 6.13201 17.2361 6.84201C17.0661 7.09901 16.6821 7.41901 16.2601 7.72201C15.3101 8.40501 14.1101 8.74201 13.5001 10C13.3476 10.3167 13.318 10.6787 13.4171 11.016C13.4771 11.236 13.5171 11.475 13.5171 11.708C13.5191 12.463 12.7551 13.008 12.0001 13C10.0361 12.979 8.75007 11.396 8.57507 9.44701Z" fill="currentColor"/>
</svg>
