<svg width="24" height="24" viewBox="0 0 24 24" fill="none" xmlns="http://www.w3.org/2000/svg">
  <path
    d="M11.9999 22.2454C17.5949 22.2454 22.2453 17.6049 22.2453 12C22.2453 6.40501 17.5846 1.75458 11.9896 1.75458C6.38517 1.75458 1.75488 6.40501 1.75488 12C1.75488 17.6049 6.39503 22.2454 11.9999 22.2454ZM12.0003 20.538C7.2586 20.538 3.47131 16.7409 3.47131 12C3.47131 7.26858 7.24831 3.46201 11.9896 3.46201C16.7206 3.46201 20.5272 7.26901 20.5375 12C20.5473 16.7413 16.7313 20.538 12.0003 20.538ZM11.9896 13.818C12.4713 13.818 12.7426 13.5467 12.7525 13.0247L12.9033 7.72115C12.9136 7.20858 12.5116 6.82715 11.9793 6.82715C11.4367 6.82715 11.0553 7.19872 11.0652 7.71086L11.1959 13.0247C11.2057 13.5369 11.4873 13.818 11.9896 13.818ZM11.9896 17.0824C12.5617 17.0824 13.0739 16.6204 13.0739 16.038C13.0739 15.4453 12.572 14.9931 11.9896 14.9931C11.3969 14.9931 10.9045 15.4552 10.9045 16.038C10.9045 16.6106 11.4067 17.0824 11.9896 17.0824Z"
    fill="currentColor"/>
</svg>
