<svg width="24" height="24" viewBox="0 0 24 24" fill="none" xmlns="http://www.w3.org/2000/svg">
<path fill-rule="evenodd" clip-rule="evenodd" d="M0.998886 12.0003C3.02689 7.84827 7.19089 5.00027 11.9989 5.00027C16.8069 5.00027 20.9709 7.84827 22.9989 12.0003C20.9709 16.1523 16.8069 19.0003 11.9989 19.0003C7.19089 19.0003 3.02689 16.1523 0.998886 12.0003ZM11.9989 15.5003C12.4585 15.5003 12.9136 15.4097 13.3383 15.2339C13.7629 15.058 14.1488 14.8002 14.4738 14.4751C14.7988 14.1501 15.0566 13.7643 15.2325 13.3397C15.4084 12.915 15.4989 12.4599 15.4989 12.0003C15.4989 11.5406 15.4084 11.0855 15.2325 10.6609C15.0566 10.2362 14.7988 9.85041 14.4738 9.5254C14.1488 9.2004 13.7629 8.94259 13.3383 8.7667C12.9136 8.5908 12.4585 8.50027 11.9989 8.50027C11.0706 8.50027 10.1804 8.86902 9.52401 9.5254C8.86764 10.1818 8.49889 11.072 8.49889 12.0003C8.49889 12.9285 8.86764 13.8188 9.52401 14.4751C10.1804 15.1315 11.0706 15.5003 11.9989 15.5003Z" fill="currentColor"/>
</svg>
