<svg width="24" height="24" viewBox="0 0 24 24" fill="none" xmlns="http://www.w3.org/2000/svg">
<path fill-rule="evenodd" clip-rule="evenodd" d="M18.9204 16.8L22.0904 19.97L21.0304 21.031L4.05844 4.061L5.11844 3L7.85844 5.738C9.18369 5.24818 10.5856 4.99828 11.9984 5C16.8064 5 20.9704 7.848 22.9984 12C22.0652 13.918 20.6624 15.5691 18.9204 16.8ZM10.8224 8.703L15.2954 13.176C15.5186 12.5518 15.5599 11.8771 15.4146 11.2304C15.2693 10.5837 14.9433 9.99153 14.4746 9.52282C14.0059 9.05411 13.4137 8.72814 12.767 8.58283C12.1203 8.43752 11.4456 8.47885 10.8214 8.702L10.8224 8.703ZM16.1394 18.263C14.8138 18.7526 13.4116 19.0022 11.9984 19C7.19044 19 3.02644 16.152 0.998438 12C1.93171 10.082 3.33445 8.43091 5.07644 7.2L8.70144 10.824C8.47828 11.4482 8.43696 12.1229 8.58227 12.7696C8.72758 13.4163 9.05355 14.0085 9.52226 14.4772C9.99096 14.9459 10.5831 15.2719 11.2299 15.4172C11.8766 15.5625 12.5513 15.5212 13.1754 15.298L16.1394 18.262V18.263Z" fill="currentColor"/>
</svg>
