<svg width="24" height="24" viewBox="0 0 24 24" fill="none" xmlns="http://www.w3.org/2000/svg">
<path d="M1.71777 6.64287C1.71777 5.79039 2.05642 4.97283 2.65922 4.37003C3.26201 3.76724 4.07958 3.42859 4.93206 3.42859H19.0715C19.924 3.42859 20.7415 3.76724 21.3443 4.37003C21.9471 4.97283 22.2858 5.79039 22.2858 6.64287V6.65145L12.0001 11.9203L1.71777 6.65487V6.64287ZM1.71777 8.09916V16.5C1.71777 17.3525 2.05642 18.1701 2.65922 18.7729C3.26201 19.3757 4.07958 19.7143 4.93206 19.7143H19.0715C19.924 19.7143 20.7415 19.3757 21.3443 18.7729C21.9471 18.1701 22.2858 17.3525 22.2858 16.5V8.09659L12.2932 13.2154C12.2025 13.2619 12.102 13.2862 12.0001 13.2862C11.8981 13.2862 11.7976 13.2619 11.7069 13.2154L1.71777 8.09916Z" fill="currentColor"/>
</svg>
