<svg width="24" height="24" viewBox="0 0 24 24" fill="none" xmlns="http://www.w3.org/2000/svg">
<path d="M2.77694 19.783L3.38394 15.621C3.42094 15.349 3.54494 15.096 3.73894 14.901L15.4999 3.124C15.6522 2.96956 15.8417 2.85702 16.0502 2.79728C16.2587 2.73755 16.479 2.73262 16.6899 2.783C17.7696 3.08146 18.7483 3.66686 19.5219 4.477C20.3299 5.25595 20.9112 6.23958 21.2039 7.323C21.2543 7.53393 21.2494 7.75429 21.1897 7.96276C21.1299 8.17123 21.0174 8.36076 20.8629 8.513L9.08894 20.275C8.89366 20.4685 8.64046 20.5928 8.36794 20.629L4.20694 21.236C4.01039 21.2647 3.80984 21.2466 3.62157 21.1833C3.43329 21.12 3.26259 21.0132 3.12331 20.8715C2.98402 20.7299 2.88008 20.5575 2.8199 20.3682C2.75972 20.1789 2.74501 19.978 2.77694 19.782M13.2749 5.364L18.6379 10.727" stroke="currentColor" stroke-width="1.3" stroke-linecap="round" stroke-linejoin="round"/>
</svg>
