<svg width="24" height="24" viewBox="0 0 24 24" fill="none" xmlns="http://www.w3.org/2000/svg">
<path d="M12 3C12.525 3 13.0285 3.20742 13.3997 3.57663C13.7709 3.94585 13.9794 4.44661 13.9794 4.96875C13.9794 5.4909 13.7709 5.99165 13.3997 6.36087C13.0285 6.73008 12.525 6.9375 12 6.9375C11.475 6.9375 10.9715 6.73008 10.6003 6.36087C10.2291 5.99165 10.0206 5.4909 10.0206 4.96875C10.0206 4.44661 10.2291 3.94585 10.6003 3.57663C10.9715 3.20742 11.475 3 12 3ZM7.69121 8.05547C7.80785 7.59844 8.22141 7.21875 8.75869 7.21875C9.19345 7.21875 9.55753 7.47188 9.7378 7.81641C10.162 8.63203 11.0174 9.1875 12 9.1875C12.9826 9.1875 13.838 8.63203 14.2622 7.81641C14.4425 7.47188 14.8065 7.21875 15.2413 7.21875C15.7821 7.21875 16.1957 7.59844 16.3088 8.05547C16.5562 9.03281 17.447 9.75352 18.5038 9.75352C18.8856 9.75352 19.2461 9.65859 19.5572 9.49336C19.8541 9.33867 20.2252 9.33516 20.5328 9.525C20.9923 9.80625 21.1372 10.4039 20.8579 10.8609L17.0794 17.0625H6.92064L3.14206 10.8609C2.86282 10.4039 3.00774 9.80625 3.46725 9.525C3.77477 9.33867 4.14591 9.33867 4.44282 9.49336C4.75741 9.65859 5.11442 9.75352 5.49616 9.75352C6.55304 9.75352 7.44378 9.03281 7.69121 8.05547ZM6.91004 18.1875H17.09L18.5533 19.643C18.7018 19.7906 18.7866 19.9945 18.7866 20.2055C18.7866 20.6449 18.4296 21 17.9878 21H6.01223C5.57039 21 5.21339 20.6449 5.21339 20.2055C5.21339 19.9945 5.29822 19.7906 5.44668 19.643L6.91004 18.1875Z" fill="currentColor"/>
</svg>
