<svg width="24" height="24" viewBox="0 0 24 24" fill="none" xmlns="http://www.w3.org/2000/svg">
  <path
    d="M12 3C10.9734 3 9.98876 3.43155 9.26281 4.19971C8.53687 4.96787 8.12903 6.00972 8.12903 7.09606C8.12903 8.1824 8.53687 9.22425 9.26281 9.99241C9.98876 10.7606 10.9734 11.1921 12 11.1921C13.0266 11.1921 14.0112 10.7606 14.7372 9.99241C15.4631 9.22425 15.871 8.1824 15.871 7.09606C15.871 6.00972 15.4631 4.96787 14.7372 4.19971C14.0112 3.43155 13.0266 3 12 3ZM7.87097 13.3767C6.84432 13.3767 5.85973 13.8082 5.13378 14.5764C4.40783 15.3446 4 16.3864 4 17.4727V18.7704C4 19.594 4.56361 20.2952 5.33161 20.4274C9.74761 21.1909 14.2524 21.1909 18.6684 20.4274C19.0398 20.3627 19.3775 20.1607 19.6213 19.8573C19.8652 19.5538 19.9994 19.1687 20 18.7704V17.4727C20 16.3864 19.5922 15.3446 18.8662 14.5764C18.1403 13.8082 17.1557 13.3767 16.129 13.3767H15.7781C15.5854 13.3774 15.3982 13.4087 15.2165 13.4706L14.3226 13.7797C12.8134 14.3011 11.1866 14.3011 9.67742 13.7797L8.78348 13.4706C8.60229 13.4091 8.41325 13.3774 8.22297 13.3767H7.87097Z"
    fill="currentColor"/>
</svg>
