<svg width="94" height="32" viewBox="0 0 94 32" fill="none" xmlns="http://www.w3.org/2000/svg">
<g clip-path="url(#clip0_1066_3025)">
<path d="M94 0H0V32H94V0Z" fill="white"/>
<path d="M9.27344 22.1406C8.75781 22.1406 8.3151 21.9583 7.94531 21.5938C7.58073 21.2292 7.39844 20.7865 7.39844 20.2656C7.39844 19.7552 7.58073 19.3177 7.94531 18.9531C8.3151 18.5885 8.75781 18.4062 9.27344 18.4062C9.77344 18.4062 10.2109 18.5885 10.5859 18.9531C10.9609 19.3177 11.1484 19.7552 11.1484 20.2656C11.1484 20.6094 11.0599 20.9245 10.8828 21.2109C10.7109 21.4922 10.4844 21.7187 10.2031 21.8906C9.92188 22.0573 9.61198 22.1406 9.27344 22.1406ZM9.27344 14.2891C8.75781 14.2891 8.3151 14.1068 7.94531 13.7422C7.58073 13.3776 7.39844 12.9349 7.39844 12.4141C7.39844 11.9036 7.58073 11.4687 7.94531 11.1094C8.3151 10.7448 8.75781 10.5625 9.27344 10.5625C9.77344 10.5625 10.2109 10.7448 10.5859 11.1094C10.9609 11.4687 11.1484 11.9036 11.1484 12.4141C11.1484 12.763 11.0599 13.0807 10.8828 13.3672C10.7109 13.6484 10.4844 13.8724 10.2031 14.0391C9.92188 14.2057 9.61198 14.2891 9.27344 14.2891ZM13.9434 24V8H20.2559C21.4694 8 22.5033 8.23177 23.3574 8.69531C24.2116 9.15365 24.8626 9.79167 25.3105 10.6094C25.7637 11.4219 25.9902 12.3594 25.9902 13.4219C25.9902 14.4844 25.7611 15.4219 25.3027 16.2344C24.8444 17.0469 24.1803 17.6797 23.3105 18.1328C22.446 18.5859 21.3991 18.8125 20.1699 18.8125H16.1465V16.1016H19.623C20.2741 16.1016 20.8105 15.9896 21.2324 15.7656C21.6595 15.5365 21.9772 15.2214 22.1855 14.8203C22.3991 14.4141 22.5059 13.9479 22.5059 13.4219C22.5059 12.8906 22.3991 12.4271 22.1855 12.0312C21.9772 11.6302 21.6595 11.3203 21.2324 11.1016C20.8053 10.8776 20.2637 10.7656 19.6074 10.7656H17.3262V24H13.9434ZM31.4531 8V24H28.125V8H31.4531ZM41.8145 18.8906V12H45.1426V24H41.9473V21.8203H41.8223C41.5514 22.5234 41.1009 23.0885 40.4707 23.5156C39.8457 23.9427 39.0827 24.1563 38.1816 24.1563C37.3796 24.1563 36.6738 23.974 36.0645 23.6094C35.4551 23.2448 34.9785 22.7266 34.6348 22.0547C34.2962 21.3828 34.1243 20.5781 34.1191 19.6406V12H37.4473V19.0469C37.4525 19.7552 37.6426 20.3151 38.0176 20.7266C38.3926 21.138 38.8952 21.3437 39.5254 21.3437C39.9264 21.3437 40.3014 21.2526 40.6504 21.0703C40.9993 20.8828 41.2806 20.6068 41.4941 20.2422C41.7129 19.8776 41.8197 19.4271 41.8145 18.8906ZM57.7891 15.4219L54.7422 15.6094C54.6901 15.349 54.5781 15.1146 54.4063 14.9062C54.2344 14.6927 54.0078 14.5234 53.7266 14.3984C53.4505 14.2682 53.1198 14.2031 52.7344 14.2031C52.2188 14.2031 51.7839 14.3125 51.4297 14.5312C51.0755 14.7448 50.8984 15.0312 50.8984 15.3906C50.8984 15.6771 51.013 15.9193 51.2422 16.1172C51.4714 16.3151 51.8646 16.474 52.4219 16.5937L54.5938 17.0312C55.7604 17.2708 56.6302 17.6562 57.2031 18.1875C57.776 18.7187 58.0625 19.4167 58.0625 20.2812C58.0625 21.0677 57.8307 21.7578 57.3672 22.3516C56.9089 22.9453 56.2786 23.4089 55.4766 23.7422C54.6797 24.0703 53.7604 24.2344 52.7188 24.2344C51.1302 24.2344 49.8646 23.9036 48.9219 23.2422C47.9844 22.5755 47.4349 21.6693 47.2734 20.5234L50.5469 20.3516C50.6458 20.8359 50.8854 21.2057 51.2656 21.4609C51.6458 21.7109 52.1328 21.8359 52.7266 21.8359C53.3099 21.8359 53.7786 21.724 54.1328 21.5C54.4922 21.2708 54.6745 20.9766 54.6797 20.6172C54.6745 20.3151 54.5469 20.0677 54.2969 19.875C54.0469 19.6771 53.6615 19.526 53.1406 19.4219L51.0625 19.0078C49.8906 18.7734 49.0182 18.3672 48.4453 17.7891C47.8776 17.2109 47.5938 16.474 47.5938 15.5781C47.5938 14.8073 47.8021 14.1432 48.2188 13.5859C48.6406 13.0286 49.2318 12.599 49.9922 12.2969C50.7578 11.9948 51.6536 11.8438 52.6797 11.8438C54.1953 11.8438 55.388 12.1641 56.2578 12.8047C57.1328 13.4453 57.6432 14.3177 57.7891 15.4219ZM66.0957 24.2187C64.8926 24.2187 63.8223 24.0234 62.8848 23.6328C61.9525 23.237 61.2207 22.6979 60.6895 22.0156C60.1582 21.3333 59.8926 20.5599 59.8926 19.6953C59.8926 19.0286 60.0436 18.4167 60.3457 17.8594C60.653 17.2969 61.0697 16.8307 61.5957 16.4609C62.1217 16.0859 62.7103 15.8464 63.3613 15.7422V15.6328C62.5072 15.4609 61.8145 15.0469 61.2832 14.3906C60.752 13.7292 60.4863 12.9609 60.4863 12.0859C60.4863 11.2578 60.7285 10.5208 61.2129 9.875C61.6973 9.22396 62.3613 8.71354 63.2051 8.34375C64.054 7.96875 65.0176 7.78125 66.0957 7.78125C67.1738 7.78125 68.1348 7.96875 68.9785 8.34375C69.8275 8.71875 70.4941 9.23177 70.9785 9.88281C71.4629 10.5286 71.7077 11.263 71.7129 12.0859C71.7077 12.9661 71.4368 13.7344 70.9004 14.3906C70.3639 15.0469 69.6764 15.4609 68.8379 15.6328V15.7422C69.4785 15.8464 70.0592 16.0859 70.5801 16.4609C71.1061 16.8307 71.5228 17.2969 71.8301 17.8594C72.1426 18.4167 72.3014 19.0286 72.3066 19.6953C72.3014 20.5599 72.0332 21.3333 71.502 22.0156C70.9707 22.6979 70.2363 23.237 69.2988 23.6328C68.3665 24.0234 67.2988 24.2187 66.0957 24.2187ZM66.0957 21.7344C66.6322 21.7344 67.1009 21.638 67.502 21.4453C67.903 21.2474 68.2155 20.9766 68.4395 20.6328C68.6686 20.2839 68.7832 19.8828 68.7832 19.4297C68.7832 18.9661 68.666 18.5573 68.4316 18.2031C68.1973 17.8438 67.8796 17.5625 67.4785 17.3594C67.0775 17.151 66.6165 17.0469 66.0957 17.0469C65.5801 17.0469 65.1191 17.151 64.7129 17.3594C64.3066 17.5625 63.9863 17.8438 63.752 18.2031C63.5228 18.5573 63.4082 18.9661 63.4082 19.4297C63.4082 19.8828 63.5202 20.2839 63.7441 20.6328C63.9681 20.9766 64.2832 21.2474 64.6895 21.4453C65.0957 21.638 65.5645 21.7344 66.0957 21.7344ZM66.0957 14.5859C66.5436 14.5859 66.9421 14.4948 67.291 14.3125C67.64 14.1302 67.9134 13.8776 68.1113 13.5547C68.3092 13.2318 68.4082 12.8594 68.4082 12.4375C68.4082 12.0208 68.3092 11.6562 68.1113 11.3437C67.9134 11.026 67.6426 10.7786 67.2988 10.6016C66.9551 10.4193 66.554 10.3281 66.0957 10.3281C65.6426 10.3281 65.2415 10.4193 64.8926 10.6016C64.5436 10.7786 64.2702 11.026 64.0723 11.3437C63.8796 11.6562 63.7832 12.0208 63.7832 12.4375C63.7832 12.8594 63.8822 13.2318 64.0801 13.5547C64.278 13.8776 64.5514 14.1302 64.9004 14.3125C65.2493 14.4948 65.6478 14.5859 66.0957 14.5859ZM74.6719 24V21.5625L80.3672 16.2891C80.8516 15.8203 81.2578 15.3984 81.5859 15.0234C81.9193 14.6484 82.1719 14.2812 82.3438 13.9219C82.5156 13.5573 82.6016 13.1641 82.6016 12.7422C82.6016 12.2734 82.4948 11.8698 82.2813 11.5312C82.0677 11.1875 81.776 10.9245 81.4063 10.7422C81.0365 10.5547 80.6172 10.4609 80.1484 10.4609C79.6589 10.4609 79.2318 10.5599 78.8672 10.7578C78.5026 10.9557 78.2214 11.2396 78.0234 11.6094C77.8255 11.9792 77.7266 12.4193 77.7266 12.9297H74.5156C74.5156 11.8828 74.7526 10.974 75.2266 10.2031C75.7005 9.43229 76.3646 8.83594 77.2188 8.41406C78.0729 7.99219 79.0573 7.78125 80.1719 7.78125C81.3177 7.78125 82.3151 7.98437 83.1641 8.39062C84.0182 8.79167 84.6823 9.34896 85.1563 10.0625C85.6302 10.776 85.8672 11.5937 85.8672 12.5156C85.8672 13.1198 85.7474 13.7161 85.5078 14.3047C85.2734 14.8932 84.8542 15.5469 84.25 16.2656C83.6458 16.9792 82.7943 17.8359 81.6953 18.8359L79.3594 21.125V21.2344H86.0781V24H74.6719Z" fill="#5C8EDC"/>
</g>
<defs>
<clipPath id="clip0_1066_3025">
<rect width="94" height="32" fill="white"/>
</clipPath>
</defs>
</svg>
